<svg fill="none" height="24" viewBox="0 0 24 24" width="24" xmlns="http://www.w3.org/2000/svg"><g fill="#1c274c"><path d="m7 12v1h5 5v-1c0-1.6546 1.3395-2.99632 2.9932-2.99999-.0085-.32802-.0275-.56622-.0701-.78037-.3156-1.58676-1.556-2.82715-3.1427-3.14278-.3864-.07686-.8511-.07686-1.7804-.07686h-3-3c-.92931 0-1.39397 0-1.78036.07686-1.58676.31563-2.82715 1.55602-3.14278 3.14278-.0426.21415-.06159.45235-.07005.78037 1.65372.00367 2.99319 1.34539 2.99319 2.99999z"/><path d="m18.4444 18h-12.88884c-.27707 0-.54673-.0317-.80556-.0916v1.0916c0 .4142-.33579.75-.75.75s-.75-.3358-.75-.75v-1.8487c-.76492-.6522-1.25-1.6229-1.25-2.7069v-2.4444c0-1.1046.89543-2 2-2s2 .8954 2 2v1.2c0 .4418.35817.8.8.8h10.4c.4418 0 .8-.3582.8-.8v-1.2c0-1.1046.8954-2 2-2s2 .8954 2 2v2.4444c0 1.084-.4851 2.0547-1.25 2.7069v1.8487c0 .4142-.3358.75-.75.75s-.75-.3358-.75-.75v-1.0916c-.2588.0599-.5285.0916-.8056.0916z"/></g></svg>